<svg width="20" height="18" viewBox="0 0 20 18" fill="none" xmlns="http://www.w3.org/2000/svg">
<path d="M1.09769 5.06646H12.1595V3.03987H1.09769C0.491482 3.03987 0 3.49355 0 4.05314C0 4.61273 0.491482 5.06646 1.09769 5.06646Z" fill="black"/>
<path d="M1.09769 9.62627H12.1595V7.59969H1.09769C0.491482 7.59969 0 8.05337 0 8.613C0 9.17263 0.491482 9.62627 1.09769 9.62627Z" fill="black"/>
<path d="M1.11053 12.1595C0.49723 12.1595 0 12.6132 0 13.1728C0 13.7324 0.49723 14.1861 1.11053 14.1861H9.41547C8.81564 13.5207 8.81564 13.2197 8.81564 13.1728C8.81564 13.093 8.81564 12.7207 9.03039 12.1595H1.11053Z" fill="black"/>
<path d="M19.7592 11.6529C19.1041 11.0106 18.2392 11.6529 17.7326 12.1595L16.7193 13.1728L16.1611 13.7566V1.39558C16.1611 0.624787 15.9406 0 15.1543 0C14.3681 0 14.097 0.62483 14.097 1.39558V13.7566L12.562 12.178C12.0061 11.633 11.1958 11.1078 10.6398 11.6529C10.1333 12.1496 10.5909 13.1344 11.1468 13.6794L14.1866 17.226C14.7414 17.7701 15.6568 17.7719 16.2132 17.226L19.253 13.6794C19.8089 13.1344 20.3151 12.1979 19.7592 11.6529Z" fill="black"/>
</svg>
